<svg width="12" height="12" viewBox="0 0 12 12" fill="none" xmlns="http://www.w3.org/2000/svg">
<path d="M6 8.68125C5.9 8.68125 5.80625 8.66575 5.71875 8.63475C5.63125 8.60375 5.55 8.5505 5.475 8.475L2.775 5.775C2.625 5.625 2.553 5.45 2.559 5.25C2.565 5.05 2.637 4.875 2.775 4.725C2.925 4.575 3.10325 4.497 3.30975 4.491C3.51625 4.485 3.69425 4.55675 3.84375 4.70625L5.25 6.1125V0.750003C5.25 0.537503 5.322 0.359503 5.466 0.216003C5.61 0.0725027 5.788 0.000502586 6 2.5862e-06C6.212 -0.000497414 6.39025 0.0715027 6.53475 0.216003C6.67925 0.360503 6.751 0.538503 6.75 0.750003V6.1125L8.15625 4.70625C8.30625 4.55625 8.4845 4.48425 8.691 4.49025C8.8975 4.49625 9.0755 4.5745 9.225 4.725C9.3625 4.875 9.4345 5.05 9.441 5.25C9.4475 5.45 9.3755 5.625 9.225 5.775L6.525 8.475C6.45 8.55 6.36875 8.60325 6.28125 8.63475C6.19375 8.66625 6.1 8.68175 6 8.68125ZM1.5 12C1.0875 12 0.7345 11.8533 0.441 11.5598C0.1475 11.2663 0.0005 10.913 0 10.5V9C0 8.7875 0.0720001 8.6095 0.216 8.466C0.36 8.3225 0.538 8.2505 0.75 8.25C0.962 8.2495 1.14025 8.3215 1.28475 8.466C1.42925 8.6105 1.501 8.7885 1.5 9V10.5H10.5V9C10.5 8.7875 10.572 8.6095 10.716 8.466C10.86 8.3225 11.038 8.2505 11.25 8.25C11.462 8.2495 11.6403 8.3215 11.7847 8.466C11.9293 8.6105 12.001 8.7885 12 9V10.5C12 10.9125 11.8533 11.2658 11.5598 11.5598C11.2663 11.8538 10.913 12.0005 10.5 12H1.5Z" fill="#1E509F"/>
</svg>
