<svg width="18" height="18" viewBox="0 0 18 18" fill="none" xmlns="http://www.w3.org/2000/svg">
<path fill-rule="evenodd" clip-rule="evenodd" d="M11.5372 0.536775C11.881 0.193078 12.3472 0 12.8333 0C13.3195 0 13.7857 0.193078 14.1295 0.536775L16.7228 3.13003C17.0664 3.47383 17.2595 3.94006 17.2595 4.42619C17.2595 4.91233 17.0664 5.37856 16.7228 5.72236L14.1295 8.31561C13.7857 8.65931 13.3195 8.85238 12.8333 8.85238C12.3472 8.85238 11.881 8.65931 11.5372 8.31561L8.94392 5.72236C8.60022 5.37856 8.40714 4.91233 8.40714 4.42619C8.40714 3.94006 8.60022 3.47383 8.94392 3.13003L11.5372 0.536775ZM12.8333 1.83386L10.241 4.42619L12.8333 7.01853L15.4257 4.42619L12.8333 1.83386ZM5.5 0.759525C5.98623 0.759525 6.45255 0.952679 6.79636 1.2965C7.14018 1.64031 7.33333 2.10663 7.33333 2.59286V6.25953C7.33333 6.74576 7.14018 7.21207 6.79636 7.55589C6.45255 7.8997 5.98623 8.09286 5.5 8.09286H1.83333C1.3471 8.09286 0.880788 7.8997 0.536971 7.55589C0.193154 7.21207 0 6.74576 0 6.25953V2.59286C0 2.10663 0.193154 1.64031 0.536971 1.2965C0.880788 0.952679 1.3471 0.759525 1.83333 0.759525H5.5ZM5.5 2.59286H1.83333V6.25953H5.5V2.59286ZM16.5 11.7595C16.5 11.2733 16.3068 10.807 15.963 10.4632C15.6192 10.1193 15.1529 9.92619 14.6667 9.92619H11C10.5138 9.92619 10.0475 10.1193 9.70364 10.4632C9.35982 10.807 9.16667 11.2733 9.16667 11.7595V15.4262C9.16667 15.9124 9.35982 16.3787 9.70364 16.7226C10.0475 17.0664 10.5138 17.2595 11 17.2595H14.6667C15.1529 17.2595 15.6192 17.0664 15.963 16.7226C16.3068 16.3787 16.5 15.9124 16.5 15.4262V11.7595ZM14.6667 11.7595V15.4262H11V11.7595H14.6667ZM5.5 9.92619C5.98623 9.92619 6.45255 10.1193 6.79636 10.4632C7.14018 10.807 7.33333 11.2733 7.33333 11.7595V15.4262C7.33333 15.9124 7.14018 16.3787 6.79636 16.7226C6.45255 17.0664 5.98623 17.2595 5.5 17.2595H1.83333C1.3471 17.2595 0.880788 17.0664 0.536971 16.7226C0.193154 16.3787 0 15.9124 0 15.4262V11.7595C0 11.2733 0.193154 10.807 0.536971 10.4632C0.880788 10.1193 1.3471 9.92619 1.83333 9.92619H5.5ZM5.5 11.7595H1.83333V15.4262H5.5V11.7595Z" fill="white"/>
</svg>
