<svg width="20" height="16" viewBox="0 0 20 16" fill="none" xmlns="http://www.w3.org/2000/svg">
<path d="M4 10H11C11.2833 10 11.521 9.904 11.713 9.712C11.905 9.52 12.0007 9.28267 12 9V4C12 3.71667 11.904 3.47933 11.712 3.288C11.52 3.09667 11.2827 3.00067 11 3H4C3.71667 3 3.47933 3.096 3.288 3.288C3.09667 3.48 3.00067 3.71733 3 4V9C3 9.28333 3.096 9.521 3.288 9.713C3.48 9.905 3.71733 10.0007 4 10ZM2 16C1.45 16 0.979333 15.8043 0.588 15.413C0.196667 15.0217 0.000666667 14.5507 0 14V2C0 1.45 0.196 0.979333 0.588 0.588C0.98 0.196666 1.45067 0.000666667 2 0H18C18.55 0 19.021 0.196 19.413 0.588C19.805 0.98 20.0007 1.45067 20 2V14C20 14.55 19.8043 15.021 19.413 15.413C19.0217 15.805 18.5507 16.0007 18 16H2ZM2 14H18V2H2V14Z" fill="white"/>
</svg>
